<?xml version="1.0" standalone="no"?>
<!DOCTYPE svg PUBLIC "-//W3C//DTD SVG 20010904//EN"
 "http://www.w3.org/TR/2001/REC-SVG-20010904/DTD/svg10.dtd">
<svg version="1.0" xmlns="http://www.w3.org/2000/svg"
 width="256.000000pt" height="256.000000pt" viewBox="0 0 256.000000 256.000000"
 preserveAspectRatio="xMidYMid meet">

<g transform="translate(0.000000,256.000000) scale(0.100000,-0.100000)"
fill="#000000" stroke="none">
<path d="M2040 1773 c-179 -19 -486 -109 -693 -204 -61 -29 -130 -54 -152 -56
-36 -4 -45 0 -78 31 -47 44 -88 47 -137 11 -19 -14 -39 -25 -44 -25 -6 0 -23
-6 -38 -14 -15 -8 -36 -12 -48 -9 -14 4 -20 1 -20 -11 0 -9 -18 -32 -39 -51
-22 -20 -54 -64 -72 -99 -30 -59 -36 -64 -93 -87 -66 -26 -248 -142 -285 -183
-31 -33 -41 -33 -41 2 0 16 8 32 20 40 40 25 15 91 -29 77 -25 -8 -73 -64 -65
-76 3 -5 14 -9 24 -9 16 0 19 -9 22 -52 3 -57 -18 -111 -33 -86 -7 10 -9 9 -9
-4 0 -15 -9 -18 -54 -18 -30 0 -57 -4 -60 -8 -3 -5 18 -7 47 -4 43 3 56 0 77
-18 14 -12 26 -17 28 -11 10 29 22 -7 22 -66 0 -57 2 -64 15 -53 10 8 15 30
15 61 0 26 3 50 8 53 4 2 32 -2 62 -10 105 -27 156 -22 695 71 661 115 978
191 1149 277 190 96 274 314 169 439 -62 73 -202 109 -363 92z"/>
<path d="M871 1674 c0 -11 3 -14 6 -6 3 7 2 16 -1 19 -3 4 -6 -2 -5 -13z"/>
<path d="M820 1620 c0 -5 5 -10 11 -10 5 0 7 5 4 10 -3 6 -8 10 -11 10 -2 0
-4 -4 -4 -10z"/>
</g>
</svg>
